
<svg width="35" height="35" viewBox="0 0 45 44" fill="none" xmlns="http://www.w3.org/2000/svg">
<path d="M9.07755 30.2986L9.07521 30.4538L9.16114 30.583C12.035 34.9048 16.9595 37.7579 22.5314 37.7579C28.1033 37.7579 33.0279 34.9048 35.9017 30.583L35.9877 30.4538L35.9853 30.2986C35.9664 29.0445 35.3229 27.9717 34.3797 27.0896C33.4386 26.2093 32.1652 25.4844 30.788 24.909C28.0357 23.759 24.748 23.1567 22.5314 23.1567C20.3042 23.1567 17.0164 23.759 14.2666 24.9091C12.8906 25.4846 11.6192 26.2095 10.6798 27.0899C9.73819 27.9722 9.09645 29.045 9.07755 30.2986ZM1.44153 21.7137C1.44153 10.0726 10.8899 0.624481 22.5314 0.624481C34.1729 0.624481 43.6213 10.0726 43.6213 21.7137C43.6213 33.3548 34.1729 42.8029 22.5314 42.8029C10.8899 42.8029 1.44153 33.3548 1.44153 21.7137ZM29.5084 13.078C29.5084 9.21804 26.3915 6.10124 22.5314 6.10124C18.6714 6.10124 15.5545 9.21804 15.5545 13.078C15.5545 16.938 18.6714 20.0548 22.5314 20.0548C26.3915 20.0548 29.5084 16.938 29.5084 13.078Z" fill="#A5D6A7" stroke="#A5D6A7"/>
</svg>