
<svg width="43" height="43" viewBox="0 0 43 43" fill="none" xmlns="http://www.w3.org/2000/svg">
<path d="M8.10006 30.0495L8.09772 30.2046L8.18365 30.3339C11.0459 34.6383 15.9506 37.48 21.5 37.48C27.0494 37.48 31.9541 34.6383 34.8164 30.3339L34.9023 30.2046L34.8999 30.0495C34.8811 28.7998 34.2399 27.7309 33.3004 26.8522C32.3629 25.9753 31.0946 25.2533 29.723 24.6802C26.9819 23.5349 23.7077 22.935 21.5 22.935C19.2817 22.935 16.0074 23.5348 13.2688 24.6803C11.8984 25.2534 10.632 25.9755 9.69625 26.8525C8.75834 27.7314 8.11889 28.8002 8.10006 30.0495ZM0.5 21.5C0.5 9.90814 9.90814 0.5 21.5 0.5C33.0919 0.5 42.5 9.90814 42.5 21.5C42.5 33.0919 33.0919 42.5 21.5 42.5C9.90814 42.5 0.5 33.0919 0.5 21.5ZM28.45 12.9C28.45 9.05486 25.3451 5.95 21.5 5.95C17.6549 5.95 14.55 9.05486 14.55 12.9C14.55 16.7451 17.6549 19.85 21.5 19.85C25.3451 19.85 28.45 16.7451 28.45 12.9Z" fill="#F4F9F5" stroke="#A5D6A7"/>
</svg>
